<mxfile host="app.diagrams.net" agent="Mozilla/5.0 (Macintosh; Intel Mac OS X 10_15_7) AppleWebKit/537.36 (KHTML, like Gecko) Chrome/126.0.0.0 Safari/537.36" version="24.7.16">
  <diagram name="Page-1" id="8aOQ6z26415mGMSmnz0y">
    <mxGraphModel dx="2985" dy="1263" grid="1" gridSize="10" guides="1" tooltips="1" connect="1" arrows="1" fold="1" page="1" pageScale="1" pageWidth="827" pageHeight="1169" math="0" shadow="0">
      <root>
        <mxCell id="0" />
        <mxCell id="1" parent="0" />
        <mxCell id="gmLrVdz8UrD2Wi29BIWp-39" value="" style="rounded=1;whiteSpace=wrap;html=1;" vertex="1" parent="1">
          <mxGeometry x="140" y="20" width="540" height="1050" as="geometry" />
        </mxCell>
        <mxCell id="gmLrVdz8UrD2Wi29BIWp-40" value="" style="rounded=0;whiteSpace=wrap;html=1;" vertex="1" parent="1">
          <mxGeometry x="60" y="360" width="730" height="370" as="geometry" />
        </mxCell>
        <mxCell id="gmLrVdz8UrD2Wi29BIWp-41" value="" style="rounded=1;whiteSpace=wrap;html=1;" vertex="1" parent="1">
          <mxGeometry x="90" y="950" width="90" height="40" as="geometry" />
        </mxCell>
        <mxCell id="gmLrVdz8UrD2Wi29BIWp-42" value="" style="rounded=1;whiteSpace=wrap;html=1;" vertex="1" parent="1">
          <mxGeometry x="220" y="950" width="90" height="40" as="geometry" />
        </mxCell>
        <mxCell id="gmLrVdz8UrD2Wi29BIWp-43" value="" style="rounded=1;whiteSpace=wrap;html=1;" vertex="1" parent="1">
          <mxGeometry x="570" y="1115" width="90" height="40" as="geometry" />
        </mxCell>
        <mxCell id="gmLrVdz8UrD2Wi29BIWp-44" value="" style="rounded=1;whiteSpace=wrap;html=1;" vertex="1" parent="1">
          <mxGeometry x="60" y="1055" width="90" height="40" as="geometry" />
        </mxCell>
        <mxCell id="gmLrVdz8UrD2Wi29BIWp-45" value="" style="rounded=1;whiteSpace=wrap;html=1;" vertex="1" parent="1">
          <mxGeometry x="60" y="1115" width="90" height="40" as="geometry" />
        </mxCell>
        <mxCell id="gmLrVdz8UrD2Wi29BIWp-46" value="" style="rounded=1;whiteSpace=wrap;html=1;" vertex="1" parent="1">
          <mxGeometry x="670" y="950" width="100" height="45" as="geometry" />
        </mxCell>
        <mxCell id="gmLrVdz8UrD2Wi29BIWp-47" value="" style="rounded=1;whiteSpace=wrap;html=1;" vertex="1" parent="1">
          <mxGeometry x="680" y="1050" width="90" height="45" as="geometry" />
        </mxCell>
        <mxCell id="gmLrVdz8UrD2Wi29BIWp-48" value="" style="shape=process;whiteSpace=wrap;html=1;backgroundOutline=1;" vertex="1" parent="1">
          <mxGeometry x="205" y="370" width="120" height="60" as="geometry" />
        </mxCell>
        <mxCell id="gmLrVdz8UrD2Wi29BIWp-49" value="" style="shape=process;whiteSpace=wrap;html=1;backgroundOutline=1;size=0;" vertex="1" parent="1">
          <mxGeometry x="490" y="365" width="120" height="60" as="geometry" />
        </mxCell>
        <mxCell id="gmLrVdz8UrD2Wi29BIWp-50" value="" style="shape=process;whiteSpace=wrap;html=1;backgroundOutline=1;" vertex="1" parent="1">
          <mxGeometry x="350" y="370" width="120" height="60" as="geometry" />
        </mxCell>
        <mxCell id="gmLrVdz8UrD2Wi29BIWp-51" value="" style="rounded=0;whiteSpace=wrap;html=1;" vertex="1" parent="1">
          <mxGeometry x="120" y="460" width="170" height="60" as="geometry" />
        </mxCell>
        <mxCell id="gmLrVdz8UrD2Wi29BIWp-52" value="" style="rounded=0;whiteSpace=wrap;html=1;" vertex="1" parent="1">
          <mxGeometry x="340" y="460" width="160" height="60" as="geometry" />
        </mxCell>
        <mxCell id="gmLrVdz8UrD2Wi29BIWp-53" value="" style="rounded=1;whiteSpace=wrap;html=1;" vertex="1" parent="1">
          <mxGeometry x="530" y="460" width="140" height="60" as="geometry" />
        </mxCell>
        <mxCell id="gmLrVdz8UrD2Wi29BIWp-54" value="Imposter" style="text;html=1;align=center;verticalAlign=middle;whiteSpace=wrap;rounded=0;" vertex="1" parent="1">
          <mxGeometry x="235" y="955" width="60" height="30" as="geometry" />
        </mxCell>
        <mxCell id="gmLrVdz8UrD2Wi29BIWp-55" value="Menu Item" style="text;html=1;align=center;verticalAlign=middle;whiteSpace=wrap;rounded=0;" vertex="1" parent="1">
          <mxGeometry x="105" y="955" width="60" height="30" as="geometry" />
        </mxCell>
        <mxCell id="gmLrVdz8UrD2Wi29BIWp-56" value="Menu Item" style="text;html=1;align=center;verticalAlign=middle;whiteSpace=wrap;rounded=0;" vertex="1" parent="1">
          <mxGeometry x="695" y="1057.5" width="60" height="30" as="geometry" />
        </mxCell>
        <mxCell id="gmLrVdz8UrD2Wi29BIWp-57" value="Imposter" style="text;html=1;align=center;verticalAlign=middle;whiteSpace=wrap;rounded=0;" vertex="1" parent="1">
          <mxGeometry x="70" y="1057.5" width="60" height="30" as="geometry" />
        </mxCell>
        <mxCell id="gmLrVdz8UrD2Wi29BIWp-58" value="Imposter" style="text;html=1;align=center;verticalAlign=middle;whiteSpace=wrap;rounded=0;" vertex="1" parent="1">
          <mxGeometry x="690" y="957.5" width="60" height="30" as="geometry" />
        </mxCell>
        <mxCell id="gmLrVdz8UrD2Wi29BIWp-59" value="Imposter" style="text;html=1;align=center;verticalAlign=middle;whiteSpace=wrap;rounded=0;" vertex="1" parent="1">
          <mxGeometry x="590" y="1120" width="60" height="30" as="geometry" />
        </mxCell>
        <mxCell id="gmLrVdz8UrD2Wi29BIWp-60" value="Menu Item" style="text;html=1;align=center;verticalAlign=middle;whiteSpace=wrap;rounded=0;" vertex="1" parent="1">
          <mxGeometry x="75" y="1120" width="60" height="30" as="geometry" />
        </mxCell>
        <mxCell id="gmLrVdz8UrD2Wi29BIWp-61" value="Menu Item" style="text;html=1;align=center;verticalAlign=middle;whiteSpace=wrap;rounded=0;" vertex="1" parent="1">
          <mxGeometry x="160" y="475" width="60" height="30" as="geometry" />
        </mxCell>
        <mxCell id="gmLrVdz8UrD2Wi29BIWp-62" value="Menu Item" style="text;html=1;align=center;verticalAlign=middle;whiteSpace=wrap;rounded=0;" vertex="1" parent="1">
          <mxGeometry x="384" y="475" width="60" height="30" as="geometry" />
        </mxCell>
        <mxCell id="gmLrVdz8UrD2Wi29BIWp-63" value="Menu Item" style="text;html=1;align=center;verticalAlign=middle;whiteSpace=wrap;rounded=0;" vertex="1" parent="1">
          <mxGeometry x="570" y="475" width="60" height="30" as="geometry" />
        </mxCell>
        <mxCell id="gmLrVdz8UrD2Wi29BIWp-64" value="Menu Item" style="text;html=1;align=center;verticalAlign=middle;whiteSpace=wrap;rounded=0;" vertex="1" parent="1">
          <mxGeometry x="235" y="380" width="60" height="30" as="geometry" />
        </mxCell>
        <mxCell id="gmLrVdz8UrD2Wi29BIWp-65" value="Menu Item" style="text;html=1;align=center;verticalAlign=middle;whiteSpace=wrap;rounded=0;" vertex="1" parent="1">
          <mxGeometry x="380" y="380" width="60" height="30" as="geometry" />
        </mxCell>
        <mxCell id="gmLrVdz8UrD2Wi29BIWp-66" value="Menu Item" style="text;html=1;align=center;verticalAlign=middle;whiteSpace=wrap;rounded=0;" vertex="1" parent="1">
          <mxGeometry x="530" y="380" width="60" height="30" as="geometry" />
        </mxCell>
        <mxCell id="gmLrVdz8UrD2Wi29BIWp-67" value="" style="endArrow=classic;startArrow=classic;html=1;rounded=0;" edge="1" parent="1">
          <mxGeometry width="50" height="50" relative="1" as="geometry">
            <mxPoint x="80" y="340" as="sourcePoint" />
            <mxPoint x="80" y="20" as="targetPoint" />
          </mxGeometry>
        </mxCell>
        <mxCell id="gmLrVdz8UrD2Wi29BIWp-68" value="" style="endArrow=classic;startArrow=classic;html=1;rounded=0;exitX=0.906;exitY=-0.009;exitDx=0;exitDy=0;exitPerimeter=0;" edge="1" parent="1" source="gmLrVdz8UrD2Wi29BIWp-40">
          <mxGeometry width="50" height="50" relative="1" as="geometry">
            <mxPoint x="390" y="500" as="sourcePoint" />
            <mxPoint x="720" y="240" as="targetPoint" />
          </mxGeometry>
        </mxCell>
        <mxCell id="gmLrVdz8UrD2Wi29BIWp-69" value="3 ScrollH" style="text;html=1;align=center;verticalAlign=middle;whiteSpace=wrap;rounded=0;" vertex="1" parent="1">
          <mxGeometry x="730" y="260" width="60" height="30" as="geometry" />
        </mxCell>
        <mxCell id="gmLrVdz8UrD2Wi29BIWp-70" value="ScrollY" style="text;html=1;align=center;verticalAlign=middle;whiteSpace=wrap;rounded=0;" vertex="1" parent="1">
          <mxGeometry x="10" y="160" width="60" height="30" as="geometry" />
        </mxCell>
        <mxCell id="gmLrVdz8UrD2Wi29BIWp-71" value="5 ScrollH" style="text;html=1;align=center;verticalAlign=middle;whiteSpace=wrap;rounded=0;" vertex="1" parent="1">
          <mxGeometry x="10" y="190" width="60" height="30" as="geometry" />
        </mxCell>
        <mxCell id="gmLrVdz8UrD2Wi29BIWp-94" value="" style="endArrow=classic;startArrow=classic;html=1;rounded=0;exitX=0.007;exitY=0.607;exitDx=0;exitDy=0;exitPerimeter=0;entryX=1.003;entryY=0.607;entryDx=0;entryDy=0;entryPerimeter=0;" edge="1" parent="1" source="gmLrVdz8UrD2Wi29BIWp-40" target="gmLrVdz8UrD2Wi29BIWp-40">
          <mxGeometry width="50" height="50" relative="1" as="geometry">
            <mxPoint x="390" y="670" as="sourcePoint" />
            <mxPoint x="440" y="620" as="targetPoint" />
          </mxGeometry>
        </mxCell>
        <mxCell id="gmLrVdz8UrD2Wi29BIWp-95" value="Top 60% of page" style="text;html=1;align=center;verticalAlign=middle;whiteSpace=wrap;rounded=0;" vertex="1" parent="1">
          <mxGeometry x="390" y="600" width="60" height="30" as="geometry" />
        </mxCell>
        <mxCell id="gmLrVdz8UrD2Wi29BIWp-96" value="" style="endArrow=classic;startArrow=classic;html=1;rounded=0;" edge="1" parent="1">
          <mxGeometry width="50" height="50" relative="1" as="geometry">
            <mxPoint x="260" y="370" as="sourcePoint" />
            <mxPoint x="260" y="50" as="targetPoint" />
          </mxGeometry>
        </mxCell>
        <mxCell id="gmLrVdz8UrD2Wi29BIWp-98" value="" style="endArrow=classic;startArrow=classic;html=1;rounded=0;" edge="1" parent="1">
          <mxGeometry width="50" height="50" relative="1" as="geometry">
            <mxPoint x="567.5" y="365" as="sourcePoint" />
            <mxPoint x="567.5" y="45" as="targetPoint" />
          </mxGeometry>
        </mxCell>
        <mxCell id="gmLrVdz8UrD2Wi29BIWp-99" value="" style="endArrow=classic;startArrow=classic;html=1;rounded=0;" edge="1" parent="1">
          <mxGeometry width="50" height="50" relative="1" as="geometry">
            <mxPoint x="188.75" y="460" as="sourcePoint" />
            <mxPoint x="188.75" y="140" as="targetPoint" />
          </mxGeometry>
        </mxCell>
        <mxCell id="gmLrVdz8UrD2Wi29BIWp-100" value="" style="endArrow=classic;startArrow=classic;html=1;rounded=0;" edge="1" parent="1">
          <mxGeometry width="50" height="50" relative="1" as="geometry">
            <mxPoint x="102.5" y="950" as="sourcePoint" />
            <mxPoint x="102.5" y="630" as="targetPoint" />
          </mxGeometry>
        </mxCell>
        <mxCell id="gmLrVdz8UrD2Wi29BIWp-101" value="" style="endArrow=classic;startArrow=classic;html=1;rounded=0;" edge="1" parent="1">
          <mxGeometry width="50" height="50" relative="1" as="geometry">
            <mxPoint x="614" y="1100" as="sourcePoint" />
            <mxPoint x="613.75" y="700" as="targetPoint" />
          </mxGeometry>
        </mxCell>
      </root>
    </mxGraphModel>
  </diagram>
</mxfile>
